<svg width="283" height="253" viewBox="0 0 283 253" fill="none" xmlns="http://www.w3.org/2000/svg">
<g clip-path="url(#clip0)">
<path d="M34.5143 197.079L31.3535 184.615C25.7491 182.24 20.0151 180.184 14.179 178.455L13.7799 184.247L12.1616 177.866C4.92385 175.799 0 174.889 0 174.889C0 174.889 6.65099 200.175 20.601 219.507L36.8557 222.362L24.2279 224.182C25.9834 226.293 27.87 228.292 29.8765 230.167C50.1697 248.999 72.7726 257.64 80.3614 249.466C87.9503 241.292 77.6513 219.399 57.358 200.566C51.0669 194.728 43.1639 190.043 35.253 186.355L34.5143 197.079Z" fill="#E6E6E6"/>
<path d="M64.5753 183.543L68.3135 171.24C64.7436 166.311 60.8984 161.587 56.7963 157.091L53.4599 161.843L55.3739 155.544C50.2464 150.035 46.5019 146.711 46.5019 146.711C46.5019 146.711 39.1221 171.795 41.0692 195.553L53.5082 206.397L41.757 201.429C42.1682 204.144 42.7498 206.83 43.4983 209.471C51.1336 236.08 66.0155 255.158 76.7379 252.082C87.4603 249.007 89.9628 224.943 82.3275 198.334C79.9605 190.085 75.6174 181.99 70.7518 174.746L64.5753 183.543Z" fill="#E6E6E6"/>
<path d="M242.534 233.866L244.886 231.327C244.601 229.713 244.226 228.118 243.761 226.547L242.394 227.305L243.599 226.005C243.005 224.068 242.489 222.823 242.489 222.823C242.489 222.823 237.752 228.029 235.43 234.011L237.167 238.099L234.905 235.515C234.686 236.22 234.511 236.939 234.381 237.667C233.101 245.007 234.461 251.376 237.419 251.892C240.377 252.407 243.813 246.875 245.093 239.534C245.445 237.189 245.435 234.804 245.064 232.462L242.534 233.866Z" fill="#E6E6E6"/>
<path d="M277.329 238.889L280.656 237.93C281.246 236.402 281.749 234.842 282.164 233.257L280.602 233.2L282.305 232.709C282.798 230.744 283 229.412 283 229.412C283 229.412 276.254 231.421 271.173 235.341L270.546 239.738L269.946 236.358C269.394 236.848 268.872 237.373 268.385 237.929C263.494 243.551 261.366 249.706 263.631 251.676C265.897 253.646 271.698 250.685 276.589 245.063C278.103 243.238 279.328 241.191 280.221 238.994L277.329 238.889Z" fill="#E6E6E6"/>
<path d="M184.34 17.1653V234.76C184.339 239.312 182.53 243.677 179.31 246.896C176.091 250.115 171.724 251.924 167.171 251.925H82.5933C78.0389 251.926 73.6709 250.118 70.4498 246.899C67.2287 243.679 65.4184 239.313 65.4171 234.76V17.1653C65.4184 12.612 67.2287 8.24557 70.4498 5.02653C73.6709 1.80749 78.0389 -0.000574108 82.5933 1.36744e-07H92.8531C92.3493 1.23865 92.1576 2.58204 92.2948 3.91212C92.4319 5.2422 92.8938 6.51824 93.6397 7.62807C94.3857 8.7379 95.3929 9.64755 96.5728 10.2771C97.7527 10.9066 99.0692 11.2367 100.407 11.2384H148.627C149.965 11.2367 151.281 10.9066 152.461 10.2771C153.641 9.64758 154.648 8.73793 155.394 7.6281C156.14 6.51826 156.602 5.24222 156.739 3.91213C156.876 2.58205 156.685 1.23865 156.181 5.5605e-06H167.171C171.724 0.000926257 176.091 1.8097 179.31 5.02862C182.53 8.24754 184.339 12.6131 184.34 17.1653V17.1653Z" fill="#3F3D56"/>
<path d="M112.961 90.1213C112.961 88.6307 113.353 87.1662 114.099 85.8753C114.844 84.5844 115.917 83.5126 117.208 82.7678C115.917 82.0219 114.452 81.6291 112.961 81.6288C111.47 81.6285 110.005 82.0207 108.713 82.766C107.421 83.5113 106.349 84.5834 105.603 85.8745C104.857 87.1657 104.465 88.6304 104.465 90.1213C104.465 91.6123 104.857 93.077 105.603 94.3681C106.349 95.6593 107.421 96.7314 108.713 97.4767C110.005 98.222 111.47 98.6142 112.961 98.6138C114.452 98.6135 115.917 98.2207 117.208 97.4749C115.917 96.73 114.844 95.6582 114.099 94.3673C113.353 93.0764 112.961 91.612 112.961 90.1213V90.1213Z" fill="white"/>
<path d="M123.64 90.1213C123.639 88.6307 124.032 87.1662 124.777 85.8753C125.523 84.5844 126.595 83.5126 127.887 82.7678C126.596 82.0219 125.131 81.6291 123.639 81.6288C122.148 81.6285 120.683 82.0207 119.392 82.766C118.1 83.5113 117.027 84.5834 116.282 85.8745C115.536 87.1657 115.143 88.6304 115.143 90.1213C115.143 91.6123 115.536 93.077 116.282 94.3681C117.027 95.6593 118.1 96.7314 119.392 97.4767C120.683 98.222 122.148 98.6142 123.639 98.6138C125.131 98.6135 126.596 98.2207 127.887 97.4749C126.595 96.73 125.523 95.6582 124.777 94.3673C124.032 93.0764 123.639 91.612 123.64 90.1213V90.1213Z" fill="white"/>
<path d="M134.076 98.6139C138.767 98.6139 142.57 94.8116 142.57 90.1213C142.57 85.4311 138.767 81.6288 134.076 81.6288C129.384 81.6288 125.581 85.4311 125.581 90.1213C125.581 94.8116 129.384 98.6139 134.076 98.6139Z" fill="#4477C9"/>
<path d="M162.881 145.701H86.9529V146.412H162.881V145.701Z" fill="white"/>
<path d="M89.3509 141.262C90.6751 141.262 91.7486 140.189 91.7486 138.865C91.7486 137.541 90.6751 136.467 89.3509 136.467C88.0266 136.467 86.9531 137.541 86.9531 138.865C86.9531 140.189 88.0266 141.262 89.3509 141.262Z" fill="#4477C9"/>
<path d="M162.881 169.673H86.9529V170.384H162.881V169.673Z" fill="white"/>
<path d="M89.3509 165.234C90.6751 165.234 91.7486 164.161 91.7486 162.837C91.7486 161.513 90.6751 160.44 89.3509 160.44C88.0266 160.44 86.9531 161.513 86.9531 162.837C86.9531 164.161 88.0266 165.234 89.3509 165.234Z" fill="#4477C9"/>
<path d="M148.271 116.646H98.7652C98.2939 116.646 97.8421 116.458 97.5088 116.125C97.1756 115.792 96.9881 115.34 96.9875 114.869V65.3736C96.9881 64.9024 97.1756 64.4507 97.5088 64.1175C97.8421 63.7843 98.2939 63.5969 98.7652 63.5964H148.271C148.743 63.5969 149.194 63.7843 149.528 64.1175C149.861 64.4507 150.048 64.9024 150.049 65.3736V114.869C150.048 115.34 149.861 115.792 149.528 116.125C149.194 116.458 148.743 116.646 148.271 116.646V116.646ZM98.7652 64.3073C98.4824 64.3076 98.2113 64.42 98.0113 64.6199C97.8114 64.8198 97.6989 65.0909 97.6986 65.3736V114.869C97.6989 115.152 97.8114 115.423 98.0113 115.623C98.2113 115.823 98.4824 115.935 98.7652 115.936H148.271C148.554 115.935 148.825 115.823 149.025 115.623C149.225 115.423 149.338 115.152 149.338 114.869V65.3736C149.338 65.0909 149.225 64.8198 149.025 64.6199C148.825 64.42 148.554 64.3076 148.271 64.3073H98.7652Z" fill="white"/>
<path d="M161.459 185.61H137.529C136.743 185.61 136.106 186.247 136.106 187.032V195.376C136.106 196.161 136.743 196.797 137.529 196.797H161.459C162.244 196.797 162.881 196.161 162.881 195.376V187.032C162.881 186.247 162.244 185.61 161.459 185.61Z" fill="#4477C9"/>
<path d="M283 251.577H0.282593V252.288H283V251.577Z" fill="#3F3D56"/>
<path d="M229.145 115.551C229.145 115.551 228.161 121.783 229.145 122.767C230.129 123.751 222.911 131.951 222.911 131.951L217.006 123.751C217.006 123.751 219.631 119.487 218.646 115.879L229.145 115.551Z" fill="#FFB8B8"/>
<path d="M207.493 162.455L203.227 208.048L204.866 243.472L212.74 241.177L213.069 209.36L222.256 181.808L227.832 211.657L227.175 241.833L237.017 242.162L237.675 208.705L238.828 161.977L207.493 162.455Z" fill="#2F2E41"/>
<path d="M227.505 240.849V248.065C227.505 248.065 225.864 253.313 231.113 252.985C236.363 252.657 236.035 250.361 236.035 250.361L234.066 241.505L227.505 240.849Z" fill="#2F2E41"/>
<path d="M212.413 240.849V248.065C212.413 248.065 214.053 253.313 208.804 252.985C203.555 252.657 203.883 250.361 203.883 250.361L205.851 241.505L212.413 240.849Z" fill="#2F2E41"/>
<path d="M223.568 119.159C227.735 119.159 231.114 115.781 231.114 111.615C231.114 107.448 227.735 104.07 223.568 104.07C219.4 104.07 216.022 107.448 216.022 111.615C216.022 115.781 219.4 119.159 223.568 119.159Z" fill="#FFB8B8"/>
<path d="M223.24 128.343L223.896 125.063H225.536L228.708 120.501L231.442 123.095L232.098 138.511H214.382L216.022 122.111L218.411 120.501C218.411 120.501 217.99 126.047 222.584 126.047L223.24 128.343Z" fill="#575A89"/>
<path d="M216.35 124.735C216.35 124.735 219.067 128.174 223.122 127.93C227.177 127.687 231.113 124.407 231.113 124.407L236.691 167.048C236.691 167.048 230.457 167.704 228.489 164.424L213.397 164.096L213.725 124.407L216.35 124.735Z" fill="#D0CDE1"/>
<path d="M218.565 119.935L204.211 127.031L207.82 147.367C207.82 147.367 209.132 154.911 207.82 157.863C206.508 160.816 205.195 180.496 205.195 180.496C205.195 180.496 219.959 182.136 217.99 158.847C216.022 135.559 218.565 119.935 218.565 119.935Z" fill="#2F2E41"/>
<path d="M209.788 169.016L211.757 170.984C211.757 170.984 217.662 181.152 220.287 177.544C222.911 173.936 215.694 167.704 215.694 167.704L212.413 165.08L209.788 169.016Z" fill="#FFB8B8"/>
<path d="M228.716 119.935L242.924 127.031L238.003 151.303C238.003 151.303 238.331 159.175 239.972 163.44C241.612 167.704 240.956 180.168 240.956 180.168C240.956 180.168 238.987 187.712 234.722 169.016C230.457 150.319 228.716 119.935 228.716 119.935Z" fill="#2F2E41"/>
<path d="M239.643 157.207H236.691C236.691 157.207 226.848 155.895 227.505 159.832C228.161 163.768 237.347 162.784 237.347 162.784L240.956 162.456L239.643 157.207Z" fill="#FFB8B8"/>
<path d="M206.18 126.047L203.883 127.031C203.883 127.031 201.587 131.951 201.258 133.591C200.93 135.231 196.993 154.911 197.978 157.207C198.962 159.503 208.804 171.64 208.804 171.64L214.382 165.736L206.18 154.583L208.476 140.479L206.18 126.047Z" fill="#2F2E41"/>
<path d="M238.003 126.375L242.344 126.741L243.252 127.031C243.252 127.031 252.438 151.959 250.47 155.895C248.501 159.832 239.971 167.048 239.971 167.048L237.675 156.879L241.94 152.943L237.675 139.823L238.003 126.375Z" fill="#2F2E41"/>
<path d="M229.952 105.797C229.952 105.797 231.926 102.094 227.583 101.757C227.583 101.757 223.635 99.4005 220.476 102.094C220.476 102.094 217.712 101.421 216.923 103.441C216.923 103.441 216.528 102.431 217.712 101.757C217.712 101.757 214.949 101.084 214.949 104.451C214.949 104.451 213.764 107.818 214.949 110.848C216.133 113.878 216.528 114.214 216.528 114.214C216.528 114.214 214.582 107.862 219.319 107.525C224.057 107.188 229.359 104.282 229.754 107.986C230.149 111.689 230.939 112.699 230.939 112.699C230.939 112.699 234.492 107.313 229.952 105.797Z" fill="#2F2E41"/>
</g>
<defs>
<clipPath id="clip0">
<rect width="283" height="253" fill="white"/>
</clipPath>
</defs>
</svg>
