<svg width="440" height="303" viewBox="0 0 440 303" fill="none" xmlns="http://www.w3.org/2000/svg">
<g clip-path="url(#clip0)">
<path opacity="0.1" d="M248.877 41.2518C220.674 41.2895 193.527 33.3145 167.561 24.4551C141.594 15.5957 115.828 5.67495 88.1494 1.47106C70.3483 -1.23117 50.1059 -0.982774 36.191 8.82881C22.7967 18.2678 18.918 33.8903 17.0466 48.3236C15.6393 59.1814 14.9903 70.5775 20.2612 80.5095C23.9211 87.4043 30.1843 93.0873 34.5988 99.6584C50.0078 122.518 40.7413 151.72 25.7661 175.11C18.7445 186.085 10.5192 196.604 5.21059 208.207C-0.0980721 219.81 -2.27511 232.967 3.13919 244.42C8.50445 255.771 20.6234 264.009 33.6291 269.636C60.0403 281.084 90.7906 283.538 120.715 284.483C186.954 286.579 253.322 282.304 319.512 278.028C344.006 276.448 368.61 274.856 392.599 270.275C405.918 267.735 419.633 263.964 429.077 255.699C441.064 245.206 443.517 228.075 434.793 215.76C420.165 195.106 381.593 191.211 371.104 168.863C365.32 156.56 370.308 142.45 377.654 130.591C393.411 105.146 420.531 82.3536 420.988 53.8936C421.301 34.3495 407.197 15.2833 386.132 6.78897C364.053 -2.10808 333.948 0.180165 318.478 16.7624C302.571 33.8452 273.779 41.2255 248.877 41.2518Z" fill="#4477C9"/>
<path d="M374.485 242.885C374.485 242.885 369.848 239.832 365.252 242.004C365.252 242.004 366.667 244.721 372.485 244.465L374.485 242.885Z" fill="#4477C9"/>
<path d="M375.074 243.047C375.074 243.047 376.485 248.406 372.946 252.053C372.946 252.053 370.818 249.844 372.946 244.432L375.074 243.047Z" fill="#4477C9"/>
<path d="M380.839 237.902C380.839 237.902 380.495 233.344 370.176 234.857C370.176 234.857 370.127 237.796 373.749 239.189C377.371 240.581 379.032 239.407 380.839 237.902Z" fill="#4477C9"/>
<path d="M381.488 237.872C381.488 237.872 385.849 239.268 381.959 248.921C381.959 248.921 379.081 248.282 378.564 244.439C378.047 240.596 379.579 239.272 381.488 237.872Z" fill="#4477C9"/>
<path d="M387.313 231.406C387.313 231.406 387.906 223.905 377.36 224.673C377.36 224.673 376.605 231.447 385.453 233.209L387.313 231.406Z" fill="#4477C9"/>
<path d="M394.282 222.938C394.282 222.938 392.837 214.436 382.295 216.969C382.295 216.969 382.257 224.319 392.562 224.963L394.282 222.938Z" fill="#4477C9"/>
<path d="M399.376 214.184C399.376 214.184 396.953 205.904 386.51 208.38C386.51 208.38 388.996 215.829 398.681 215.712L399.376 214.184Z" fill="#4477C9"/>
<path d="M404.213 205.633C404.213 205.633 401.847 197.041 391.762 199.611C391.762 199.611 395.127 207.775 403.545 207.086L404.213 205.633Z" fill="#4477C9"/>
<path d="M407.329 197.511C407.329 197.511 405.511 187.004 396.108 189.329C396.108 189.329 398.84 198.889 406.639 199.043L407.329 197.511Z" fill="#4477C9"/>
<path d="M410.253 187.7C410.253 187.7 408.069 177.109 398.557 180.173C398.557 180.173 402.285 190.184 409.578 189.149L410.253 187.7Z" fill="#4477C9"/>
<path d="M412.049 178.569C412.049 178.569 408.582 167.975 401.228 168.261C401.228 168.261 404.771 179.45 411.434 180.681L412.049 178.569Z" fill="#4477C9"/>
<path d="M413.211 169.657C413.211 169.657 409.438 156.906 403.454 157.889C403.454 157.889 406.065 167.636 413 171.644L413.211 169.657Z" fill="#4477C9"/>
<path d="M413.868 159.025C413.868 159.025 410.329 148.401 404.435 147.975C404.435 147.975 406.843 158.431 413.751 161.788L413.868 159.025Z" fill="#4477C9"/>
<path d="M414.581 149.105C414.581 149.105 410.17 138.469 406.28 138.228C406.28 138.228 408.197 148.702 414.204 150.851L414.581 149.105Z" fill="#4477C9"/>
<path d="M415.068 139.876C415.068 139.876 412.355 128.326 408.457 127.366C408.457 127.366 408.989 136.816 414.675 140.742L415.068 139.876Z" fill="#4477C9"/>
<path d="M416.539 127.788C416.539 127.788 413.687 118.578 410.529 117.174C410.529 117.174 411.151 128.032 415.811 130.038L416.539 127.788Z" fill="#4477C9"/>
<path d="M417.758 119.884L418.331 103.648C418.331 103.648 412.427 115.887 417.332 122.733L417.758 119.884Z" fill="#4477C9"/>
<path d="M422.316 103.735C422.316 103.735 426.568 91.8796 427.598 91.2173C427.598 91.2173 419.26 98.91 420.075 108.804L422.316 103.735Z" fill="#4477C9"/>
<path d="M387.6 231.349C387.6 231.349 395.078 230.375 394.856 240.916C394.856 240.916 388.098 242.015 385.891 233.295L387.6 231.349Z" fill="#4477C9"/>
<path d="M394.637 222.652C394.637 222.652 403.277 222.626 402.56 233.416C402.56 233.416 395.305 234.71 392.912 224.692L394.637 222.652Z" fill="#4477C9"/>
<path d="M399.459 214.88C399.459 214.88 407.303 211.211 412.321 220.684C412.321 220.684 405.077 223.74 398.764 216.412L399.459 214.88Z" fill="#4477C9"/>
<path d="M404.386 205.712C404.386 205.712 412.419 201.809 417.135 211.06C417.135 211.06 408.767 213.935 403.722 207.176L404.386 205.712Z" fill="#4477C9"/>
<path d="M407.227 197.741C407.227 197.741 414.958 190.376 421.127 197.824C421.127 197.824 413.23 203.887 406.873 199.382L407.227 197.741Z" fill="#4477C9"/>
<path d="M409.816 187.448C409.816 187.448 417.592 179.92 423.712 187.794C423.712 187.794 414.985 193.977 409.536 189.028L409.816 187.448Z" fill="#4477C9"/>
<path d="M411.268 178.268C411.268 178.268 417.26 168.859 424.315 170.959C424.315 170.959 418.097 180.922 411.336 180.477L411.268 178.268Z" fill="#4477C9"/>
<path d="M413.034 169.597C413.034 169.597 419.071 157.749 424.783 159.812C424.783 159.812 420.429 168.92 412.879 171.596L413.034 169.597Z" fill="#4477C9"/>
<path d="M413.453 158.408C413.453 158.408 419.659 149.082 425.474 150.222C425.474 150.222 420.399 159.68 412.849 161.106L413.453 158.408Z" fill="#4477C9"/>
<path d="M413.936 148.897C413.936 148.897 418.746 138.431 422.655 138.36C422.655 138.36 420.346 148.751 414.26 150.674L413.936 148.897Z" fill="#4477C9"/>
<path d="M414.879 139.65C414.879 139.65 420.225 129.052 424.244 129.03C424.244 129.03 421.508 138.092 415.056 140.58L414.879 139.65Z" fill="#4477C9"/>
<path d="M415.683 128.45C415.683 128.45 419.682 119.681 422.995 118.687C422.995 118.687 420.995 129.376 416.124 130.776L415.683 128.45Z" fill="#4477C9"/>
<path d="M418.233 119.564L427.172 105.982C427.172 105.982 424.881 119.38 416.928 122.165L418.233 119.564Z" fill="#4477C9"/>
<path d="M424.368 104.83C424.368 104.83 434.756 97.6793 435.133 96.5239C435.133 96.5239 429.851 106.539 420.041 108.308L424.368 104.83Z" fill="#4477C9"/>
<path d="M424.991 101.612C424.991 101.612 436.917 90.1747 439.962 90.186C439.962 90.186 430.126 90.6339 424.704 101.002L424.991 101.612Z" fill="#4477C9"/>
<path d="M415.8 130.147L416.234 130.204C418.475 112.707 421.742 102.354 425.432 101.085L425.289 100.671C421.376 102.026 418.086 112.222 415.8 130.147Z" fill="#444053"/>
<path d="M412.502 171.991L413.159 172.043C413.298 170.41 413.404 168.739 413.476 167.072C414.102 152.59 415.072 139.289 416.347 129.319L415.969 128.849C414.69 138.841 413.445 152.541 412.819 167.045C412.747 168.701 412.642 170.365 412.502 171.991Z" fill="#444053"/>
<path d="M362.245 251.232C362.358 251.183 373.915 246.035 385.91 233.758C392.937 226.568 398.776 218.311 403.209 209.295C408.756 198.031 412.136 184.188 413.268 170.741L412.585 171.061C410.038 201.245 396.263 221.869 385.31 233.103C373.432 245.271 362.004 250.367 361.891 250.416L362.245 251.232Z" fill="#444053"/>
<path d="M392.169 32.0768H29.6259C28.7693 32.0768 27.9478 32.4162 27.3421 33.0203C26.7364 33.6245 26.3961 34.4439 26.3961 35.2984V44.6847H395.399V35.2984C395.399 34.4439 395.059 33.6245 394.453 33.0203C393.847 32.4162 393.026 32.0768 392.169 32.0768V32.0768Z" fill="#3F3D56"/>
<path d="M26.3961 44.6847V255.91C26.3961 257.633 27.0822 259.285 28.3035 260.504C29.5248 261.722 31.1812 262.406 32.9084 262.406H388.887C390.614 262.406 392.27 261.722 393.492 260.504C394.713 259.285 395.399 257.633 395.399 255.91V44.6847H26.3961Z" fill="white"/>
<path opacity="0.8" d="M32.2406 39.7921C33.0741 39.7921 33.7498 39.1181 33.7498 38.2866C33.7498 37.4552 33.0741 36.7812 32.2406 36.7812C31.4071 36.7812 30.7314 37.4552 30.7314 38.2866C30.7314 39.1181 31.4071 39.7921 32.2406 39.7921Z" fill="#FA5959"/>
<path opacity="0.8" d="M36.3909 39.7921C37.2244 39.7921 37.9001 39.1181 37.9001 38.2866C37.9001 37.4552 37.2244 36.7812 36.3909 36.7812C35.5574 36.7812 34.8817 37.4552 34.8817 38.2866C34.8817 39.1181 35.5574 39.7921 36.3909 39.7921Z" fill="#FED253"/>
<path opacity="0.8" d="M40.5412 39.7921C41.3748 39.7921 42.0505 39.1181 42.0505 38.2866C42.0505 37.4552 41.3748 36.7812 40.5412 36.7812C39.7077 36.7812 39.032 37.4552 39.032 38.2866C39.032 39.1181 39.7077 39.7921 40.5412 39.7921Z" fill="#8CCF4D"/>
<path opacity="0.05" d="M357.257 79.904H60.6968V209.98H357.257V79.904Z" fill="black"/>
<path d="M354.994 80.8901H62.9606V208.098H354.994V80.8901Z" fill="#3F3D56"/>
<path d="M142.572 113.629C136.826 113.629 131.209 115.329 126.431 118.513C121.653 121.697 117.93 126.223 115.731 131.519C113.532 136.814 112.957 142.641 114.078 148.262C115.199 153.884 117.965 159.047 122.029 163.1C126.092 167.153 131.268 169.913 136.904 171.031C142.539 172.149 148.381 171.575 153.69 169.382C158.998 167.189 163.536 163.474 166.728 158.709C169.92 153.943 171.624 148.34 171.624 142.609C171.624 138.803 170.873 135.035 169.413 131.519C167.953 128.003 165.813 124.808 163.115 122.117C160.417 119.426 157.214 117.292 153.69 115.835C150.165 114.379 146.387 113.629 142.572 113.629V113.629ZM147.782 143.305V157.027H137.512V143.305C136.091 142.232 135.043 140.74 134.518 139.042C133.992 137.343 134.014 135.522 134.582 133.836C135.149 132.151 136.233 130.686 137.68 129.648C139.127 128.61 140.865 128.051 142.647 128.051C144.43 128.051 146.167 128.61 147.614 129.648C149.061 130.686 150.145 132.151 150.713 133.836C151.28 135.522 151.303 137.343 150.777 139.042C150.251 140.74 149.203 142.232 147.782 143.305V143.305Z" fill="#4477C9"/>
<path opacity="0.05" d="M142.572 113.629C136.826 113.629 131.209 115.329 126.431 118.513C121.653 121.697 117.93 126.223 115.731 131.519C113.532 136.814 112.957 142.641 114.078 148.262C115.199 153.884 117.965 159.047 122.029 163.1C126.092 167.153 131.268 169.913 136.904 171.031C142.539 172.149 148.381 171.575 153.69 169.382C158.998 167.189 163.536 163.474 166.728 158.709C169.92 153.943 171.624 148.34 171.624 142.609C171.624 138.803 170.873 135.035 169.413 131.519C167.953 128.003 165.813 124.808 163.115 122.117C160.417 119.426 157.214 117.292 153.69 115.835C150.165 114.379 146.387 113.629 142.572 113.629V113.629ZM147.782 143.305V157.027H137.512V143.305C136.091 142.232 135.043 140.74 134.518 139.042C133.992 137.343 134.014 135.522 134.582 133.836C135.149 132.151 136.233 130.686 137.68 129.648C139.127 128.61 140.865 128.051 142.647 128.051C144.43 128.051 146.167 128.61 147.614 129.648C149.061 130.686 150.145 132.151 150.713 133.836C151.28 135.522 151.303 137.343 150.777 139.042C150.251 140.74 149.203 142.232 147.782 143.305V143.305Z" fill="black"/>
<path d="M142.572 105.349C135.184 105.349 127.962 107.535 121.819 111.629C115.677 115.723 110.889 121.542 108.062 128.35C105.235 135.158 104.495 142.65 105.936 149.878C107.378 157.105 110.935 163.744 116.159 168.955C121.383 174.166 128.039 177.714 135.284 179.152C142.53 180.59 150.041 179.852 156.866 177.032C163.691 174.212 169.525 169.436 173.63 163.309C177.734 157.181 179.925 149.978 179.925 142.609C179.925 132.727 175.989 123.25 168.984 116.262C161.979 109.275 152.478 105.349 142.572 105.349V105.349ZM149.269 143.504V161.144H136.063V143.504C134.235 142.124 132.888 140.207 132.211 138.022C131.535 135.837 131.564 133.495 132.293 131.327C133.023 129.16 134.417 127.275 136.278 125.94C138.139 124.605 140.374 123.887 142.666 123.887C144.958 123.887 147.193 124.605 149.054 125.94C150.915 127.275 152.309 129.16 153.039 131.327C153.768 133.495 153.797 135.837 153.121 138.022C152.444 140.207 151.097 142.124 149.269 143.504V143.504Z" fill="#4477C9"/>
<path d="M316.131 137.72H195.394V150.516H316.131V137.72Z" fill="white"/>
<path d="M316.131 161.054H290.097V173.85H316.131V161.054Z" fill="#4477C9"/>
<path d="M207.279 143.926H205.095L207.038 141.991C207.073 141.956 207.092 141.908 207.092 141.858C207.092 141.808 207.073 141.76 207.038 141.724C207.02 141.707 206.999 141.693 206.976 141.683C206.953 141.673 206.929 141.669 206.904 141.669C206.879 141.669 206.854 141.673 206.831 141.683C206.808 141.693 206.787 141.707 206.77 141.724L204.827 143.662V141.48C204.827 141.43 204.807 141.382 204.771 141.346C204.736 141.311 204.688 141.291 204.638 141.291C204.588 141.292 204.541 141.312 204.506 141.348C204.471 141.383 204.45 141.43 204.449 141.48V143.662L202.51 141.713C202.493 141.695 202.472 141.681 202.449 141.672C202.426 141.662 202.401 141.657 202.376 141.657C202.351 141.657 202.327 141.662 202.304 141.672C202.281 141.681 202.26 141.695 202.242 141.713C202.207 141.749 202.188 141.797 202.188 141.846C202.188 141.896 202.207 141.944 202.242 141.98L204.185 143.915H201.997C201.947 143.916 201.9 143.936 201.865 143.971C201.829 144.006 201.809 144.053 201.808 144.103C201.808 144.153 201.828 144.201 201.864 144.236C201.899 144.271 201.947 144.291 201.997 144.291H204.185L202.242 146.229C202.207 146.265 202.188 146.313 202.188 146.363C202.188 146.413 202.207 146.461 202.242 146.496C202.279 146.53 202.326 146.549 202.376 146.549C202.426 146.549 202.474 146.53 202.51 146.496L204.449 144.558V146.737C204.449 146.787 204.469 146.835 204.505 146.87C204.54 146.906 204.588 146.925 204.638 146.925C204.688 146.925 204.736 146.906 204.771 146.87C204.807 146.835 204.827 146.787 204.827 146.737V144.558L206.77 146.496C206.806 146.53 206.854 146.549 206.904 146.549C206.954 146.549 207.001 146.53 207.038 146.496C207.073 146.461 207.092 146.413 207.092 146.363C207.092 146.313 207.073 146.265 207.038 146.229L205.095 144.291H207.279C207.329 144.291 207.377 144.271 207.413 144.236C207.448 144.201 207.468 144.153 207.468 144.103C207.465 144.055 207.444 144.01 207.409 143.977C207.374 143.944 207.327 143.926 207.279 143.926Z" fill="#4477C9"/>
<path d="M215.203 143.926H213.018L214.961 141.991C214.996 141.956 215.015 141.908 215.015 141.858C215.015 141.808 214.996 141.76 214.961 141.724C214.944 141.707 214.923 141.693 214.9 141.683C214.877 141.673 214.852 141.669 214.827 141.669C214.802 141.669 214.778 141.673 214.755 141.683C214.732 141.693 214.711 141.707 214.693 141.724L212.75 143.662V141.48C212.75 141.43 212.73 141.382 212.695 141.346C212.659 141.311 212.612 141.291 212.561 141.291C212.512 141.292 212.464 141.312 212.429 141.348C212.394 141.383 212.374 141.43 212.373 141.48V143.662L210.433 141.713C210.416 141.695 210.395 141.681 210.372 141.672C210.349 141.662 210.324 141.657 210.3 141.657C210.275 141.657 210.25 141.662 210.227 141.672C210.204 141.681 210.183 141.695 210.166 141.713C210.131 141.749 210.111 141.797 210.111 141.846C210.111 141.896 210.131 141.944 210.166 141.98L212.109 143.915H209.92C209.871 143.916 209.823 143.936 209.788 143.971C209.753 144.006 209.733 144.053 209.732 144.103C209.732 144.153 209.752 144.201 209.787 144.236C209.822 144.271 209.87 144.291 209.92 144.291H212.109L210.166 146.229C210.131 146.265 210.111 146.313 210.111 146.363C210.111 146.413 210.131 146.461 210.166 146.496C210.202 146.53 210.25 146.549 210.3 146.549C210.349 146.549 210.397 146.53 210.433 146.496L212.373 144.558V146.737C212.373 146.787 212.393 146.835 212.428 146.87C212.463 146.906 212.511 146.925 212.561 146.925C212.612 146.925 212.659 146.906 212.695 146.87C212.73 146.835 212.75 146.787 212.75 146.737V144.558L214.693 146.496C214.73 146.53 214.777 146.549 214.827 146.549C214.877 146.549 214.925 146.53 214.961 146.496C214.996 146.461 215.015 146.413 215.015 146.363C215.015 146.313 214.996 146.265 214.961 146.229L213.018 144.291H215.203C215.253 144.291 215.301 144.271 215.336 144.236C215.371 144.201 215.391 144.153 215.391 144.103C215.388 144.055 215.367 144.01 215.332 143.977C215.297 143.944 215.251 143.926 215.203 143.926Z" fill="#4477C9"/>
<path d="M223.126 143.926H220.941L222.885 141.991C222.919 141.956 222.939 141.908 222.939 141.858C222.939 141.808 222.919 141.76 222.885 141.724C222.867 141.707 222.846 141.693 222.823 141.683C222.8 141.673 222.775 141.669 222.751 141.669C222.726 141.669 222.701 141.673 222.678 141.683C222.655 141.693 222.634 141.707 222.617 141.724L220.674 143.662V141.48C220.674 141.43 220.654 141.382 220.618 141.346C220.583 141.311 220.535 141.291 220.485 141.291C220.435 141.292 220.388 141.312 220.353 141.348C220.317 141.383 220.297 141.43 220.296 141.48V143.662L218.357 141.713C218.339 141.695 218.318 141.681 218.295 141.672C218.272 141.662 218.248 141.657 218.223 141.657C218.198 141.657 218.173 141.662 218.15 141.672C218.127 141.681 218.107 141.695 218.089 141.713C218.054 141.749 218.035 141.797 218.035 141.846C218.035 141.896 218.054 141.944 218.089 141.98L220.032 143.915H217.844C217.794 143.916 217.747 143.936 217.711 143.971C217.676 144.006 217.656 144.053 217.655 144.103C217.655 144.153 217.675 144.201 217.71 144.236C217.746 144.271 217.794 144.291 217.844 144.291H220.032L218.089 146.229C218.054 146.265 218.035 146.313 218.035 146.363C218.035 146.413 218.054 146.461 218.089 146.496C218.125 146.53 218.173 146.549 218.223 146.549C218.273 146.549 218.321 146.53 218.357 146.496L220.296 144.558V146.737C220.296 146.787 220.316 146.835 220.351 146.87C220.387 146.906 220.435 146.925 220.485 146.925C220.535 146.925 220.583 146.906 220.618 146.87C220.654 146.835 220.674 146.787 220.674 146.737V144.558L222.617 146.496C222.653 146.53 222.701 146.549 222.751 146.549C222.8 146.549 222.848 146.53 222.885 146.496C222.919 146.461 222.939 146.413 222.939 146.363C222.939 146.313 222.919 146.265 222.885 146.229L220.941 144.291H223.126C223.176 144.291 223.224 144.271 223.259 144.236C223.295 144.201 223.315 144.153 223.315 144.103C223.312 144.055 223.291 144.01 223.256 143.977C223.22 143.944 223.174 143.926 223.126 143.926Z" fill="#4477C9"/>
<path d="M231.049 143.926H228.865L230.808 141.991C230.843 141.956 230.862 141.908 230.862 141.858C230.862 141.808 230.843 141.76 230.808 141.724C230.79 141.707 230.769 141.693 230.746 141.683C230.723 141.673 230.699 141.669 230.674 141.669C230.649 141.669 230.624 141.673 230.601 141.683C230.578 141.693 230.558 141.707 230.54 141.724L228.597 143.662V141.48C228.597 141.43 228.577 141.382 228.542 141.346C228.506 141.311 228.458 141.291 228.408 141.291C228.358 141.292 228.311 141.312 228.276 141.348C228.241 141.383 228.221 141.43 228.22 141.48V143.662L226.28 141.713C226.263 141.695 226.242 141.681 226.219 141.672C226.196 141.662 226.171 141.657 226.146 141.657C226.121 141.657 226.097 141.662 226.074 141.672C226.051 141.681 226.03 141.695 226.012 141.713C225.978 141.749 225.958 141.797 225.958 141.846C225.958 141.896 225.978 141.944 226.012 141.98L227.955 143.915H225.767C225.717 143.916 225.67 143.936 225.635 143.971C225.6 144.006 225.579 144.053 225.578 144.103C225.578 144.153 225.598 144.201 225.634 144.236C225.669 144.271 225.717 144.291 225.767 144.291H227.955L226.012 146.229C225.978 146.265 225.958 146.313 225.958 146.363C225.958 146.413 225.978 146.461 226.012 146.496C226.049 146.53 226.097 146.549 226.146 146.549C226.196 146.549 226.244 146.53 226.28 146.496L228.22 144.558V146.737C228.22 146.787 228.239 146.835 228.275 146.87C228.31 146.906 228.358 146.925 228.408 146.925C228.458 146.925 228.506 146.906 228.542 146.87C228.577 146.835 228.597 146.787 228.597 146.737V144.558L230.54 146.496C230.576 146.53 230.624 146.549 230.674 146.549C230.724 146.549 230.772 146.53 230.808 146.496C230.843 146.461 230.862 146.413 230.862 146.363C230.862 146.313 230.843 146.265 230.808 146.229L228.865 144.291H231.049C231.099 144.291 231.147 144.271 231.183 144.236C231.218 144.201 231.238 144.153 231.238 144.103C231.235 144.055 231.214 144.01 231.179 143.977C231.144 143.944 231.097 143.926 231.049 143.926Z" fill="#4477C9"/>
<path d="M238.973 143.926H236.788L238.731 141.991C238.766 141.956 238.786 141.908 238.786 141.858C238.786 141.808 238.766 141.76 238.731 141.724C238.714 141.707 238.693 141.693 238.67 141.683C238.647 141.673 238.622 141.669 238.597 141.669C238.572 141.669 238.548 141.673 238.525 141.683C238.502 141.693 238.481 141.707 238.463 141.724L236.52 143.662V141.48C236.52 141.43 236.5 141.382 236.465 141.346C236.43 141.311 236.382 141.291 236.332 141.291C236.282 141.292 236.234 141.312 236.199 141.348C236.164 141.383 236.144 141.43 236.143 141.48V143.662L234.204 141.713C234.186 141.695 234.165 141.681 234.142 141.672C234.119 141.662 234.095 141.657 234.07 141.657C234.045 141.657 234.02 141.662 233.997 141.672C233.974 141.681 233.953 141.695 233.936 141.713C233.901 141.749 233.881 141.797 233.881 141.846C233.881 141.896 233.901 141.944 233.936 141.98L235.879 143.915H233.69C233.641 143.916 233.593 143.936 233.558 143.971C233.523 144.006 233.503 144.053 233.502 144.103C233.502 144.153 233.522 144.201 233.557 144.236C233.592 144.271 233.64 144.291 233.69 144.291H235.879L233.936 146.229C233.901 146.265 233.881 146.313 233.881 146.363C233.881 146.413 233.901 146.461 233.936 146.496C233.972 146.53 234.02 146.549 234.07 146.549C234.119 146.549 234.167 146.53 234.204 146.496L236.143 144.558V146.737C236.143 146.787 236.163 146.835 236.198 146.87C236.234 146.906 236.282 146.925 236.332 146.925C236.382 146.925 236.43 146.906 236.465 146.87C236.5 146.835 236.52 146.787 236.52 146.737V144.558L238.463 146.496C238.5 146.53 238.548 146.549 238.597 146.549C238.647 146.549 238.695 146.53 238.731 146.496C238.766 146.461 238.786 146.413 238.786 146.363C238.786 146.313 238.766 146.265 238.731 146.229L236.788 144.291H238.973C239.023 144.291 239.071 144.271 239.106 144.236C239.141 144.201 239.161 144.153 239.161 144.103C239.158 144.055 239.137 144.01 239.102 143.977C239.067 143.944 239.021 143.926 238.973 143.926Z" fill="#4477C9"/>
<path d="M246.896 143.926H244.711L246.655 141.991C246.689 141.956 246.709 141.908 246.709 141.858C246.709 141.808 246.689 141.76 246.655 141.724C246.637 141.707 246.616 141.693 246.593 141.683C246.57 141.673 246.546 141.669 246.521 141.669C246.496 141.669 246.471 141.673 246.448 141.683C246.425 141.693 246.404 141.707 246.387 141.724L244.444 143.662V141.48C244.444 141.43 244.424 141.382 244.388 141.346C244.353 141.311 244.305 141.291 244.255 141.291C244.205 141.292 244.158 141.312 244.123 141.348C244.087 141.383 244.067 141.43 244.066 141.48V143.662L242.127 141.713C242.109 141.695 242.089 141.681 242.066 141.672C242.043 141.662 242.018 141.657 241.993 141.657C241.968 141.657 241.943 141.662 241.92 141.672C241.897 141.681 241.877 141.695 241.859 141.713C241.824 141.749 241.805 141.797 241.805 141.846C241.805 141.896 241.824 141.944 241.859 141.98L243.802 143.915H241.614C241.564 143.916 241.517 143.936 241.481 143.971C241.446 144.006 241.426 144.053 241.425 144.103C241.425 144.153 241.445 144.201 241.48 144.236C241.516 144.271 241.564 144.291 241.614 144.291H243.802L241.859 146.229C241.824 146.265 241.805 146.313 241.805 146.363C241.805 146.413 241.824 146.461 241.859 146.496C241.895 146.53 241.943 146.549 241.993 146.549C242.043 146.549 242.091 146.53 242.127 146.496L244.066 144.558V146.737C244.066 146.787 244.086 146.835 244.122 146.87C244.157 146.906 244.205 146.925 244.255 146.925C244.305 146.925 244.353 146.906 244.388 146.87C244.424 146.835 244.444 146.787 244.444 146.737V144.558L246.387 146.496C246.423 146.53 246.471 146.549 246.521 146.549C246.57 146.549 246.618 146.53 246.655 146.496C246.689 146.461 246.709 146.413 246.709 146.363C246.709 146.313 246.689 146.265 246.655 146.229L244.711 144.291H246.896C246.946 144.291 246.994 144.271 247.029 144.236C247.065 144.201 247.085 144.153 247.085 144.103C247.082 144.055 247.061 144.01 247.026 143.977C246.991 143.944 246.944 143.926 246.896 143.926Z" fill="#4477C9"/>
<path d="M254.819 143.926H252.635L254.578 141.991C254.613 141.956 254.632 141.908 254.632 141.858C254.632 141.808 254.613 141.76 254.578 141.724C254.56 141.707 254.54 141.693 254.517 141.683C254.494 141.673 254.469 141.669 254.444 141.669C254.419 141.669 254.394 141.673 254.371 141.683C254.348 141.693 254.328 141.707 254.31 141.724L252.367 143.662V141.48C252.367 141.43 252.347 141.382 252.312 141.346C252.276 141.311 252.228 141.291 252.178 141.291C252.129 141.292 252.081 141.312 252.046 141.348C252.011 141.383 251.991 141.43 251.99 141.48V143.662L250.05 141.713C250.033 141.695 250.012 141.681 249.989 141.672C249.966 141.662 249.941 141.657 249.916 141.657C249.891 141.657 249.867 141.662 249.844 141.672C249.821 141.681 249.8 141.695 249.782 141.713C249.748 141.749 249.728 141.797 249.728 141.846C249.728 141.896 249.748 141.944 249.782 141.98L251.726 143.915H249.537C249.487 143.916 249.44 143.936 249.405 143.971C249.37 144.006 249.35 144.053 249.349 144.103C249.349 144.153 249.368 144.201 249.404 144.236C249.439 144.271 249.487 144.291 249.537 144.291H251.726L249.782 146.229C249.748 146.265 249.728 146.313 249.728 146.363C249.728 146.413 249.748 146.461 249.782 146.496C249.819 146.53 249.867 146.549 249.916 146.549C249.966 146.549 250.014 146.53 250.05 146.496L251.99 144.558V146.737C251.99 146.787 252.01 146.835 252.045 146.87C252.08 146.906 252.128 146.925 252.178 146.925C252.228 146.925 252.276 146.906 252.312 146.87C252.347 146.835 252.367 146.787 252.367 146.737V144.558L254.31 146.496C254.346 146.53 254.394 146.549 254.444 146.549C254.494 146.549 254.542 146.53 254.578 146.496C254.613 146.461 254.632 146.413 254.632 146.363C254.632 146.313 254.613 146.265 254.578 146.229L252.635 144.291H254.819C254.869 144.291 254.917 144.271 254.953 144.236C254.988 144.201 255.008 144.153 255.008 144.103C255.005 144.055 254.984 144.01 254.949 143.977C254.914 143.944 254.868 143.926 254.819 143.926Z" fill="#4477C9"/>
<path d="M262.743 143.926H260.558L262.501 141.991C262.536 141.956 262.556 141.908 262.556 141.858C262.556 141.808 262.536 141.76 262.501 141.724C262.484 141.707 262.463 141.693 262.44 141.683C262.417 141.673 262.392 141.669 262.367 141.669C262.342 141.669 262.318 141.673 262.295 141.683C262.272 141.693 262.251 141.707 262.233 141.724L260.29 143.662V141.48C260.29 141.43 260.27 141.382 260.235 141.346C260.2 141.311 260.152 141.291 260.102 141.291C260.052 141.292 260.005 141.312 259.969 141.348C259.934 141.383 259.914 141.43 259.913 141.48V143.662L257.974 141.713C257.956 141.695 257.935 141.681 257.912 141.672C257.889 141.662 257.865 141.657 257.84 141.657C257.815 141.657 257.79 141.662 257.767 141.672C257.744 141.681 257.723 141.695 257.706 141.713C257.671 141.749 257.652 141.797 257.652 141.846C257.652 141.896 257.671 141.944 257.706 141.98L259.649 143.915H257.461C257.411 143.916 257.363 143.936 257.328 143.971C257.293 144.006 257.273 144.053 257.272 144.103C257.272 144.153 257.292 144.201 257.327 144.236C257.363 144.271 257.411 144.291 257.461 144.291H259.649L257.706 146.229C257.671 146.265 257.652 146.313 257.652 146.363C257.652 146.413 257.671 146.461 257.706 146.496C257.742 146.53 257.79 146.549 257.84 146.549C257.889 146.549 257.937 146.53 257.974 146.496L259.913 144.558V146.737C259.913 146.787 259.933 146.835 259.968 146.87C260.004 146.906 260.052 146.925 260.102 146.925C260.152 146.925 260.2 146.906 260.235 146.87C260.27 146.835 260.29 146.787 260.29 146.737V144.558L262.233 146.496C262.27 146.53 262.318 146.549 262.367 146.549C262.417 146.549 262.465 146.53 262.501 146.496C262.536 146.461 262.556 146.413 262.556 146.363C262.556 146.313 262.536 146.265 262.501 146.229L260.558 144.291H262.743C262.793 144.291 262.841 144.271 262.876 144.236C262.912 144.201 262.931 144.153 262.931 144.103C262.929 144.055 262.907 144.01 262.872 143.977C262.837 143.944 262.791 143.926 262.743 143.926Z" fill="#4477C9"/>
<path d="M270.666 143.926H268.482L270.425 141.991C270.46 141.956 270.479 141.908 270.479 141.858C270.479 141.808 270.46 141.76 270.425 141.724C270.407 141.707 270.386 141.693 270.363 141.683C270.34 141.673 270.316 141.669 270.291 141.669C270.266 141.669 270.241 141.673 270.218 141.683C270.195 141.693 270.174 141.707 270.157 141.724L268.214 143.662V141.48C268.214 141.43 268.194 141.382 268.158 141.346C268.123 141.311 268.075 141.291 268.025 141.291C267.975 141.292 267.928 141.312 267.893 141.348C267.858 141.383 267.837 141.43 267.836 141.48V143.662L265.897 141.713C265.88 141.695 265.859 141.681 265.836 141.672C265.813 141.662 265.788 141.657 265.763 141.657C265.738 141.657 265.714 141.662 265.691 141.672C265.668 141.681 265.647 141.695 265.629 141.713C265.594 141.749 265.575 141.797 265.575 141.846C265.575 141.896 265.594 141.944 265.629 141.98L267.572 143.915H265.384C265.334 143.916 265.287 143.936 265.252 143.971C265.216 144.006 265.196 144.053 265.195 144.103C265.195 144.153 265.215 144.201 265.251 144.236C265.286 144.271 265.334 144.291 265.384 144.291H267.572L265.629 146.229C265.594 146.265 265.575 146.313 265.575 146.363C265.575 146.413 265.594 146.461 265.629 146.496C265.666 146.53 265.713 146.549 265.763 146.549C265.813 146.549 265.861 146.53 265.897 146.496L267.836 144.558V146.737C267.836 146.787 267.856 146.835 267.892 146.87C267.927 146.906 267.975 146.925 268.025 146.925C268.075 146.925 268.123 146.906 268.158 146.87C268.194 146.835 268.214 146.787 268.214 146.737V144.558L270.157 146.496C270.193 146.53 270.241 146.549 270.291 146.549C270.34 146.549 270.388 146.53 270.425 146.496C270.46 146.461 270.479 146.413 270.479 146.363C270.479 146.313 270.46 146.265 270.425 146.229L268.482 144.291H270.666C270.716 144.291 270.764 144.271 270.8 144.236C270.835 144.201 270.855 144.153 270.855 144.103C270.852 144.055 270.831 144.01 270.796 143.977C270.761 143.944 270.714 143.926 270.666 143.926Z" fill="#4477C9"/>
<path d="M278.59 143.926H276.405L278.348 141.991C278.383 141.956 278.402 141.908 278.402 141.858C278.402 141.808 278.383 141.76 278.348 141.724C278.331 141.707 278.31 141.693 278.287 141.683C278.264 141.673 278.239 141.669 278.214 141.669C278.189 141.669 278.165 141.673 278.142 141.683C278.119 141.693 278.098 141.707 278.08 141.724L276.137 143.662V141.48C276.137 141.43 276.117 141.382 276.082 141.346C276.046 141.311 275.998 141.291 275.948 141.291C275.899 141.292 275.851 141.312 275.816 141.348C275.781 141.383 275.761 141.43 275.76 141.48V143.662L273.82 141.713C273.803 141.695 273.782 141.681 273.759 141.672C273.736 141.662 273.711 141.657 273.687 141.657C273.662 141.657 273.637 141.662 273.614 141.672C273.591 141.681 273.57 141.695 273.553 141.713C273.518 141.749 273.498 141.797 273.498 141.846C273.498 141.896 273.518 141.944 273.553 141.98L275.496 143.915H273.307C273.258 143.916 273.21 143.936 273.175 143.971C273.14 144.006 273.12 144.053 273.119 144.103C273.119 144.153 273.139 144.201 273.174 144.236C273.209 144.271 273.257 144.291 273.307 144.291H275.496L273.553 146.229C273.518 146.265 273.498 146.313 273.498 146.363C273.498 146.413 273.518 146.461 273.553 146.496C273.589 146.53 273.637 146.549 273.687 146.549C273.736 146.549 273.784 146.53 273.82 146.496L275.76 144.558V146.737C275.76 146.787 275.78 146.835 275.815 146.87C275.85 146.906 275.898 146.925 275.948 146.925C275.998 146.925 276.046 146.906 276.082 146.87C276.117 146.835 276.137 146.787 276.137 146.737V144.558L278.08 146.496C278.117 146.53 278.164 146.549 278.214 146.549C278.264 146.549 278.312 146.53 278.348 146.496C278.383 146.461 278.402 146.413 278.402 146.363C278.402 146.313 278.383 146.265 278.348 146.229L276.405 144.291H278.59C278.64 144.291 278.688 144.271 278.723 144.236C278.758 144.201 278.778 144.153 278.778 144.103C278.775 144.055 278.754 144.01 278.719 143.977C278.684 143.944 278.638 143.926 278.59 143.926Z" fill="#4477C9"/>
<path d="M286.513 143.926H284.328L286.271 141.991C286.306 141.956 286.326 141.908 286.326 141.858C286.326 141.808 286.306 141.76 286.271 141.724C286.254 141.707 286.233 141.693 286.21 141.683C286.187 141.673 286.162 141.669 286.138 141.669C286.113 141.669 286.088 141.673 286.065 141.683C286.042 141.693 286.021 141.707 286.004 141.724L284.06 143.662V141.48C284.06 141.43 284.041 141.382 284.005 141.346C283.97 141.311 283.922 141.291 283.872 141.291C283.822 141.292 283.775 141.312 283.739 141.348C283.704 141.383 283.684 141.43 283.683 141.48V143.662L281.744 141.713C281.726 141.695 281.705 141.681 281.682 141.672C281.659 141.662 281.635 141.657 281.61 141.657C281.585 141.657 281.56 141.662 281.537 141.672C281.514 141.681 281.493 141.695 281.476 141.713C281.441 141.749 281.422 141.797 281.422 141.846C281.422 141.896 281.441 141.944 281.476 141.98L283.419 143.915H281.231C281.181 143.916 281.134 143.936 281.098 143.971C281.063 144.006 281.043 144.053 281.042 144.103C281.042 144.153 281.062 144.201 281.097 144.236C281.133 144.271 281.181 144.291 281.231 144.291H283.419L281.476 146.229C281.441 146.265 281.422 146.313 281.422 146.363C281.422 146.413 281.441 146.461 281.476 146.496C281.512 146.53 281.56 146.549 281.61 146.549C281.66 146.549 281.707 146.53 281.744 146.496L283.683 144.558V146.737C283.683 146.787 283.703 146.835 283.738 146.87C283.774 146.906 283.822 146.925 283.872 146.925C283.922 146.925 283.97 146.906 284.005 146.87C284.041 146.835 284.06 146.787 284.06 146.737V144.558L286.004 146.496C286.04 146.53 286.088 146.549 286.138 146.549C286.187 146.549 286.235 146.53 286.271 146.496C286.306 146.461 286.326 146.413 286.326 146.363C286.326 146.313 286.306 146.265 286.271 146.229L284.328 144.291H286.513C286.563 144.291 286.611 144.271 286.646 144.236C286.682 144.201 286.702 144.153 286.702 144.103C286.699 144.055 286.678 144.01 286.643 143.977C286.607 143.944 286.561 143.926 286.513 143.926Z" fill="#4477C9"/>
<path d="M347.255 189.709C347.244 189.255 347.187 188.802 347.085 188.358C346.746 187.086 345.98 185.547 344.72 185.163C343.418 184.766 342.162 184.236 340.969 183.582C340.743 179.548 341.671 175.419 340.66 171.509C340.282 170.079 339.66 168.709 339.494 167.245C339.286 165.423 339.784 163.481 339.056 161.803C338.483 160.478 337.223 159.545 335.868 159.055C334.513 158.566 333.053 158.434 331.616 158.303C329.805 158.156 323.941 157.463 321.896 159.078C321.755 159.187 321.629 159.314 321.519 159.454V159.454C321.474 159.516 321.434 159.582 321.398 159.65L321.38 159.68C321.339 159.758 321.304 159.84 321.278 159.925V159.925C321.249 160.017 321.228 160.111 321.214 160.207C321.214 160.237 321.214 160.267 321.214 160.297C321.214 160.327 321.214 160.429 321.214 160.497V160.598C321.214 160.666 321.214 160.734 321.214 160.805C321.214 160.877 321.214 160.858 321.214 160.884C321.24 161.223 321.289 161.562 321.289 161.897C321.293 162.064 321.278 162.23 321.244 162.394C321.118 162.837 320.905 163.252 320.617 163.613V163.613L320.549 163.711C320.508 163.771 320.466 163.827 320.429 163.888C320.391 163.948 320.361 163.993 320.331 164.046C320.3 164.098 320.27 164.132 320.244 164.181C320.207 164.243 320.175 164.307 320.146 164.373C320.146 164.411 320.104 164.445 320.089 164.482C320.042 164.584 320.004 164.69 319.976 164.798C319.888 165.125 319.88 165.469 319.953 165.8C320.055 166.222 320.23 166.623 320.47 166.985C320.565 167.139 320.666 167.29 320.772 167.44L321.036 167.798C320.987 168.147 320.96 168.499 320.957 168.852C320.957 170.03 321.226 171.193 321.742 172.253C322.258 173.314 323.009 174.243 323.938 174.971C324.087 176.561 324.071 178.161 323.889 179.747C323.855 180.079 323.813 180.413 323.768 180.745C323.723 181.076 323.689 181.294 323.643 181.569C323.091 181.648 322.529 181.605 321.995 181.445C321.748 181.335 321.496 181.238 321.24 181.155C320.142 180.88 319.021 181.972 317.935 181.64C317.935 181.693 317.905 181.742 317.886 181.791C317.659 181.65 317.398 181.574 317.131 181.569C316.486 181.539 315.962 181.072 315.494 180.632L314.056 179.281C313.962 179.198 313.879 179.104 313.807 179.002C313.73 178.856 313.671 178.7 313.634 178.539C313.392 177.76 312.807 177.139 312.241 176.548C312.134 176.414 311.992 176.311 311.83 176.251C311.767 176.242 311.704 176.242 311.641 176.251C311.603 176.198 311.561 176.148 311.517 176.1C311.419 175.989 311.315 175.883 311.204 175.784C310.517 175.152 310.449 174.61 309.853 173.903C309.333 173.228 308.861 172.517 308.442 171.776C308.393 171.381 308.325 170.974 308.242 170.564C308.052 169.625 307.775 168.705 307.416 167.817L306.661 166.15L306.574 166.236C306.027 165.423 305.442 164.979 304.918 165.085C304.039 165.265 303.605 166.966 303.744 169.191L304.046 171.449C304.046 171.505 304.073 171.562 304.088 171.618C304.033 171.886 304.006 172.158 304.005 172.431C304.005 172.747 304.299 172.98 304.454 173.263C304.701 173.645 304.832 174.091 304.831 174.546C304.812 174.708 304.763 174.862 304.756 175.02C304.776 175.374 304.899 175.714 305.11 175.999L306.997 179.16L307.374 179.823L307.397 179.853C307.516 180.084 307.689 180.283 307.902 180.432C307.976 181.224 308.187 181.997 308.525 182.717C308.589 182.86 308.661 182.995 308.736 183.131C309.243 183.962 309.841 184.736 310.517 185.438L311.415 186.443C312.302 187.429 313.188 188.419 314.15 189.329C314.495 189.695 314.911 189.986 315.373 190.184C315.599 190.274 315.845 190.303 316.086 190.268C316.328 190.233 316.555 190.135 316.746 189.984C316.746 190.451 316.746 190.918 316.746 191.384C316.886 191.393 317.022 191.439 317.138 191.517C317.255 191.595 317.348 191.703 317.409 191.829C317.469 191.955 317.495 192.095 317.484 192.235C317.472 192.374 317.423 192.508 317.342 192.622C316.55 194.651 315.75 196.698 314.55 198.516C315.397 199.016 316.182 199.614 316.89 200.296C317.349 200.804 317.757 201.355 318.108 201.941C318.142 202.22 318.169 202.494 318.184 202.769C318.463 207.255 316.724 211.707 315.165 215.983C314.716 217.195 314.226 218.463 314.264 219.724C313.968 219.906 313.686 220.108 313.418 220.33C313.728 221.135 313.607 221.854 313.573 222.716C313.562 223.233 313.456 223.743 313.26 224.221C313.096 224.553 312.915 224.876 312.717 225.189C311.739 226.908 311.524 228.952 311.328 230.917C311.211 232.102 311.672 233.551 311.132 234.612C310.2 236.434 309.374 238.376 309.246 240.401C309.241 240.856 309.183 241.31 309.072 241.752C308.955 242.128 308.747 242.448 308.642 242.817C308.533 243.311 308.508 243.82 308.566 244.322C308.638 246.126 308.369 247.928 307.774 249.633C307.302 250.976 306.782 252.414 307.151 253.795C306.241 254.749 305.679 255.981 305.555 257.292C305.546 257.627 305.505 257.961 305.435 258.289C305.319 258.624 305.168 258.946 304.982 259.249C304.222 260.628 303.867 262.193 303.956 263.765C302.824 265.297 302.258 267.186 301.922 269.064C301.586 270.942 301.439 272.854 301.009 274.709C300.435 277.163 299.398 279.643 299.194 282.157C297.972 282.937 297.443 284.446 297.21 285.872C296.976 287.298 296.938 288.796 296.338 290.114C296.029 290.799 295.583 291.412 295.289 292.112C295.083 292.669 294.931 293.245 294.836 293.832C294.655 294.75 294.497 295.774 294.719 296.655C294.399 296.993 294.026 297.276 293.614 297.494C293.674 297.261 293.723 297.027 293.765 296.79C292.791 297.671 291.026 297.362 290.248 298.42C290.015 298.761 289.924 299.179 289.994 299.586C290.065 299.992 290.291 300.356 290.626 300.599C290.869 300.747 291.132 300.86 291.407 300.934C293.293 301.536 295.232 302.142 297.172 301.822C297.401 301.797 297.623 301.727 297.825 301.615C298.077 301.43 298.284 301.191 298.432 300.915C298.723 300.456 299.013 299.997 299.3 299.538C299.995 299.744 300.702 299.909 301.416 300.031C301.488 300.633 301.541 301.235 301.567 301.837C301.945 301.912 302.45 301.935 302.628 301.585C302.681 301.453 302.703 301.31 302.692 301.167C302.692 300.9 302.729 300.546 302.752 300.185H302.828C303.979 300.231 305.124 300 306.167 299.511C305.763 296.177 307.095 292.917 308.249 289.764C309.468 286.444 310.513 283.064 311.566 279.685C312.321 277.306 313.154 275.003 313.894 272.621C314.825 269.61 315.759 266.599 316.697 263.588C317.105 262.263 317.516 260.954 317.984 259.636C318.969 256.971 320.137 254.377 321.481 251.872C321.859 251.161 322.236 250.457 322.545 249.719C322.923 248.82 323.191 247.879 323.492 246.949C324.15 245.042 324.942 243.183 325.862 241.387C325.888 241.338 325.907 241.293 325.934 241.248C326.239 242.493 326.545 243.758 326.749 245.011C327.024 246.548 327.046 248.119 326.813 249.663C326.632 250.713 326.288 251.752 326.33 252.817C326.386 254.288 327.175 255.624 327.564 257.043C327.814 258.105 327.956 259.19 327.986 260.28C328.092 261.974 329.012 263.874 328.363 265.444C326.345 270.415 327.322 276.03 326.171 281.25C325.579 283.93 323.764 286.448 323.907 289.188C324.008 291.132 324.179 293.072 324.421 295.006C324.479 295.617 324.638 296.213 324.892 296.771C325.043 297.065 325.216 297.347 325.409 297.614C325.243 297.678 325.104 297.848 324.983 298.205C324.673 299.146 324.983 300.313 325.82 300.84C326.162 301.022 326.53 301.149 326.911 301.216C327.424 301.362 327.955 301.435 328.488 301.434C328.654 301.425 328.819 301.405 328.982 301.374C329.565 301.619 330.161 301.832 330.767 302.014C330.767 302.168 330.797 302.323 330.816 302.477C330.817 302.558 330.835 302.637 330.869 302.71C330.903 302.784 330.951 302.849 331.012 302.902C331.106 302.946 331.21 302.964 331.314 302.955H333.363C333.363 302.786 333.363 302.612 333.363 302.443C333.597 302.467 333.834 302.442 334.058 302.37C334.283 302.297 334.489 302.179 334.664 302.022C334.846 301.791 334.975 301.524 335.042 301.239C335.6 299.349 336.155 297.459 336.706 295.567C337.366 293.476 337.641 291.283 337.517 289.094C336.789 282.157 338.388 275.199 337.868 268.244C337.554 264.063 337.77 259.86 338.509 255.734C338.679 254.8 338.886 253.852 338.962 252.922C339.128 251.168 338.924 249.396 339.049 247.653C339.09 247.043 339.173 246.438 339.249 245.832C339.766 242.071 340.037 238.28 340.06 234.484C340.048 233.227 339.97 231.97 339.826 230.721C340.219 230.621 340.576 230.412 340.856 230.119C341.192 229.682 341.105 229.069 341.101 228.512C341.101 227.179 341.663 225.922 342.116 224.665C342.697 222.932 343.173 221.165 343.542 219.374C343.932 217.931 344.145 216.446 344.176 214.952C344.176 214.801 344.169 214.651 344.154 214.5C344.296 214.402 344.414 214.273 344.501 214.124C344.599 213.903 344.66 213.668 344.682 213.427C344.818 212.468 344.957 211.504 345.093 210.541C345.194 209.851 345.293 209.162 345.391 208.475L346.591 200.123C346.693 199.397 346.798 198.674 346.9 197.952L347.213 195.791C347.247 195.535 347.285 195.28 347.312 195.039C348.232 193.503 347.353 191.456 347.255 189.709ZM337.245 220.977C336.8 219.923 336.385 218.843 336.491 217.707H336.449C336.548 217.357 336.531 216.984 336.4 216.645C336.283 216.37 336.079 216.137 335.955 215.862C335.821 215.527 335.752 215.17 335.751 214.809C335.657 212.52 335.838 210.228 336.291 207.982C336.34 207.718 336.392 207.451 336.441 207.187C336.6 207.096 336.745 206.983 336.872 206.852C337.07 206.627 337.234 206.373 337.358 206.1C337.785 205.245 338.173 204.376 338.532 203.492C338.649 203.206 338.819 202.874 339.109 202.803C339.049 205.005 339.275 207.251 338.377 209.239C338.206 209.559 338.08 209.901 338 210.255C337.917 210.815 338.151 211.384 338.068 211.941C338.026 212.231 337.902 212.498 337.853 212.784C337.815 212.924 337.816 213.072 337.854 213.212C337.893 213.352 337.968 213.48 338.071 213.582C338.121 213.617 338.176 213.645 338.234 213.664C338.211 213.815 338.192 213.969 338.177 214.116C338.147 214.425 338.132 214.715 338.113 214.895C338.026 215.816 337.992 216.741 338.011 217.665C338.011 218.662 338.049 219.66 338.034 220.676C338.048 220.968 337.999 221.259 337.89 221.53C337.816 221.67 337.719 221.797 337.604 221.907C337.494 221.568 337.373 221.271 337.245 220.977Z" fill="url(#paint0_linear)"/>
<path d="M307.462 177.308C308.613 177.073 309.005 174.246 308.337 170.994C307.669 167.742 306.194 165.297 305.043 165.532C303.891 165.768 303.499 168.595 304.167 171.846C304.835 175.098 306.31 177.544 307.462 177.308Z" fill="#FBBEBE"/>
<path d="M325.043 298.277C324.734 299.21 325.043 300.377 325.881 300.885C326.22 301.065 326.585 301.192 326.964 301.261C327.476 301.405 328.005 301.478 328.537 301.476C329.19 301.446 329.816 301.19 330.469 301.099C330.544 301.08 330.624 301.091 330.691 301.13C330.724 301.164 330.749 301.206 330.763 301.252C330.777 301.297 330.781 301.346 330.774 301.393C330.781 301.763 330.809 302.132 330.857 302.499C330.858 302.58 330.876 302.66 330.91 302.733C330.943 302.806 330.993 302.872 331.054 302.925C331.148 302.969 331.252 302.987 331.355 302.977H333.4C333.447 301.185 333.25 299.395 332.816 297.656C332.787 297.523 332.736 297.395 332.665 297.279C332.491 297.09 332.263 296.958 332.012 296.903C331.512 296.696 330.972 296.602 330.431 296.628C329.771 296.715 329.22 297.14 328.658 297.494C328.096 297.848 327.33 298.16 326.647 297.979C325.964 297.799 325.394 297.23 325.043 298.277Z" fill="#3F3D56"/>
<path d="M295.017 296.625C294.442 297.239 293.737 297.717 292.953 298.025L292.606 298.19C292.558 298.208 292.517 298.241 292.489 298.284C292.483 298.314 292.483 298.344 292.489 298.373C292.496 298.402 292.509 298.43 292.527 298.454C292.816 298.899 293.243 299.239 293.743 299.42C294.243 299.601 294.788 299.615 295.297 299.459C295.521 299.402 295.729 299.294 295.904 299.142C296.192 298.802 296.356 298.375 296.372 297.931C296.486 297.472 296.466 296.99 296.315 296.542C295.791 295.364 295.598 295.898 295.017 296.625Z" fill="#FBBEBE"/>
<path d="M302.858 301.261C302.869 301.404 302.847 301.547 302.794 301.679C302.616 302.025 302.122 302.006 301.737 301.931C301.679 300.654 301.524 299.384 301.273 298.13C300.541 298.096 300.013 298.789 299.62 299.41L298.609 301.009C298.463 301.284 298.257 301.524 298.006 301.709C297.803 301.819 297.582 301.89 297.353 301.916C295.421 302.236 293.47 301.63 291.607 301.028C291.332 300.954 291.069 300.843 290.826 300.697C290.493 300.453 290.268 300.09 290.198 299.685C290.127 299.279 290.217 298.862 290.448 298.521C291.229 297.468 292.984 297.769 293.957 296.896C293.856 297.51 293.689 298.112 293.459 298.691C294.761 298.495 295.636 297.306 296.685 296.512C296.949 296.289 297.266 296.138 297.606 296.075C297.86 296.054 298.116 296.081 298.36 296.154C299.57 296.458 300.701 297.013 301.68 297.784C302.077 298.096 302.695 298.536 302.869 299.018C303.054 299.594 302.858 300.648 302.858 301.261Z" fill="#3F3D56"/>
<path d="M328.812 177.087C333.118 177.087 336.608 173.605 336.608 169.311C336.608 165.017 333.118 161.535 328.812 161.535C324.507 161.535 321.017 165.017 321.017 169.311C321.017 173.605 324.507 177.087 328.812 177.087Z" fill="#FBBEBE"/>
<path d="M344.169 215.219C344.137 216.705 343.926 218.183 343.539 219.618C343.17 221.402 342.693 223.161 342.112 224.887C341.663 226.141 341.101 227.398 341.105 228.726C341.105 229.279 341.196 229.893 340.856 230.33C340.554 230.636 340.172 230.853 339.754 230.958C339.546 231.013 339.353 231.117 339.192 231.26C339.03 231.403 338.905 231.582 338.826 231.782C338.472 231.254 338.207 230.672 338.041 230.059C337.365 227.991 336.736 225.912 336.155 223.822C336.102 223.702 336.079 223.571 336.088 223.439C336.097 223.308 336.138 223.181 336.208 223.07C336.303 222.987 336.415 222.924 336.536 222.885C336.923 222.728 337.277 222.501 337.581 222.215C337.724 222.089 337.841 221.937 337.928 221.767C338.038 221.498 338.088 221.208 338.075 220.917C338.075 219.92 338.075 218.926 338.049 217.929C338.033 217.008 338.068 216.087 338.154 215.17C338.154 214.989 338.188 214.699 338.219 214.391C338.275 213.8 338.388 213.115 338.709 212.885C339.188 212.566 340.622 212.995 341.165 213.07C342.101 213.198 343.052 213.348 343.965 213.525C344.098 214.08 344.166 214.648 344.169 215.219Z" fill="#3F3D56"/>
<path d="M312.694 178.016C312.392 178.618 311.668 178.908 311.109 179.288L309.196 180.598C309.069 180.713 308.919 180.801 308.756 180.856C308.593 180.912 308.421 180.934 308.249 180.922C308.094 180.864 307.951 180.776 307.83 180.663C307.709 180.55 307.612 180.414 307.544 180.263C307.545 180.253 307.545 180.243 307.544 180.233L307.148 179.57L305.261 176.417C305.051 176.134 304.929 175.797 304.91 175.446C304.91 175.284 304.967 175.133 304.982 174.971C304.987 174.517 304.856 174.071 304.605 173.692C304.454 173.41 304.152 173.176 304.159 172.86C304.145 172.445 304.217 172.031 304.371 171.644C304.569 171.287 304.853 170.984 305.197 170.764C305.374 170.636 305.555 170.515 305.744 170.387C305.844 170.319 305.955 170.268 306.072 170.237C306.386 170.173 306.695 170.433 307.012 170.444C308.374 171.355 308.898 173.078 309.97 174.32C310.574 175.028 310.634 175.57 311.317 176.202C311.426 176.3 311.532 176.405 311.634 176.514C311.769 176.661 311.883 176.826 311.973 177.004C312.098 177.327 312.849 177.708 312.694 178.016Z" fill="#3F3D56"/>
<path d="M326.073 177.09C326.635 178.276 327.073 179.578 326.911 180.88C326.878 181.233 326.765 181.574 326.583 181.878C326.039 182.709 324.9 182.86 323.908 182.909C323.698 182.891 323.488 182.915 323.288 182.98C323.089 183.045 322.904 183.148 322.745 183.285C322.613 183.477 322.548 183.708 322.561 183.941C322.574 184.174 322.664 184.396 322.817 184.572C323.136 184.912 323.532 185.17 323.972 185.325C325.541 186.014 327.235 186.582 328.941 186.424C329.733 186.349 330.503 186.119 331.291 186.002C332.151 185.91 333.015 185.862 333.88 185.859C334.906 185.822 335.928 185.72 336.951 185.618L339.66 185.351C339.808 185.353 339.952 185.301 340.064 185.205C340.264 184.971 340.007 184.629 339.758 184.452C338.32 183.39 336.491 182.66 335.672 181.065C335.294 180.312 335.178 179.416 334.898 178.603C334.619 177.79 334.174 177.056 334 176.228C333.908 175.502 333.866 174.77 333.876 174.038C333.885 173.3 333.616 172.585 333.121 172.036C332.582 171.535 331.801 171.407 331.069 171.377C329.265 171.298 327.345 171.727 326.066 172.996C325.722 173.338 325.428 173.748 325.073 174.057C324.719 174.365 324.236 174.456 324.47 174.862C324.704 175.269 325.164 175.521 325.413 175.878C325.665 176.264 325.886 176.669 326.073 177.09V177.09Z" fill="#FBBEBE"/>
<path d="M341.441 188.038C340.965 190.936 340.191 193.778 339.132 196.518C338.599 197.755 338.145 199.025 337.773 200.319C337.483 201.486 337.539 202.735 337.272 203.906C336.94 205.362 336.608 206.822 336.34 208.29C335.89 210.532 335.71 212.818 335.804 215.102C335.805 215.462 335.874 215.818 336.008 216.152C336.132 216.423 336.332 216.657 336.449 216.935C336.537 217.18 336.572 217.44 336.554 217.699C336.536 217.958 336.464 218.21 336.343 218.44C336.15 218.871 335.887 219.268 335.566 219.615C332.05 220.661 328.288 220.318 324.624 220.541C321.248 220.744 317.833 221.436 314.505 220.86C314.128 219.355 314.758 217.778 315.297 216.31C316.863 212.046 318.595 207.605 318.316 203.138C318.287 202.617 318.227 202.098 318.139 201.583C317.591 198.418 318.188 195.14 319.142 192.073C319.735 190.161 319.708 188.125 319.572 186.134C319.505 185.488 319.496 184.836 319.546 184.188C319.6 183.527 319.847 182.895 320.255 182.371C320.255 182.344 320.289 182.318 320.308 182.291C320.327 182.265 320.474 182.269 320.591 182.291C320.621 182.304 320.653 182.311 320.685 182.311C320.718 182.311 320.75 182.304 320.78 182.291L320.821 182.265C320.837 182.254 320.856 182.248 320.876 182.248C320.895 182.248 320.915 182.254 320.931 182.265C321.017 182.318 321.066 182.498 321.255 182.532C321.534 182.574 321.815 182.601 322.096 182.611C322.435 182.621 322.772 182.669 323.1 182.754H323.145C323.636 182.837 324.14 182.794 324.609 182.63C324.922 182.552 325.223 182.436 325.507 182.284C325.59 182.194 326.111 182.111 326.217 182.047C326.56 181.84 326.484 180.869 326.556 180.47C326.596 180.07 326.691 179.677 326.839 179.303C327.011 179.027 327.248 178.798 327.53 178.634C327.811 178.471 328.129 178.379 328.454 178.366C329.104 178.351 329.753 178.409 330.39 178.539C331.797 178.739 333.238 178.705 334.619 179.028C335.313 179.19 336.072 179.435 336.709 179.119C336.883 179.16 336.909 179.311 336.909 179.495C336.893 179.67 336.858 179.843 336.804 180.011C336.562 181.05 337.381 182.005 338.136 182.758C338.454 183.113 338.831 183.412 339.249 183.643C339.626 183.816 340.003 183.887 340.381 184.075C340.686 184.238 340.946 184.475 341.135 184.764C341.353 185.096 341.499 185.469 341.565 185.859C341.646 186.588 341.604 187.324 341.441 188.038Z" fill="#3F3D56"/>
<path opacity="0.1" d="M341.441 188.038C340.965 190.936 340.191 193.778 339.132 196.518C338.599 197.755 338.145 199.025 337.773 200.319C337.483 201.486 337.539 202.735 337.272 203.906C336.94 205.362 336.608 206.822 336.34 208.29C336.26 208.335 336.177 208.377 336.094 208.414C335.625 208.638 335.127 208.797 334.615 208.889C333.696 209 332.764 208.969 331.854 208.798L326.469 208.079C324.319 207.79 322.028 207.44 320.432 205.987C319.546 205.189 318.965 204.135 318.327 203.119C318.298 202.598 318.239 202.079 318.15 201.565C317.603 198.4 318.199 195.121 319.153 192.054C319.746 190.142 319.719 188.106 319.584 186.115C319.516 185.469 319.507 184.818 319.557 184.169C319.612 183.508 319.858 182.876 320.266 182.352C320.377 182.319 320.489 182.294 320.602 182.276V182.276C320.678 182.261 320.755 182.251 320.832 182.246H320.942C321.069 182.247 321.196 182.262 321.319 182.291C321.576 182.373 321.828 182.47 322.074 182.581H322.119C322.443 182.688 322.782 182.736 323.123 182.724C323.621 182.724 324.134 182.645 324.632 182.611C325.247 182.516 325.877 182.628 326.42 182.931C326.771 183.212 327.104 183.515 327.416 183.838C327.794 184.134 328.219 184.364 328.673 184.52C331.921 185.756 335.524 185.68 338.717 184.309C339.023 184.135 339.371 184.046 339.724 184.053C339.985 184.104 340.231 184.209 340.448 184.361C340.675 184.493 340.897 184.621 341.128 184.738C341.345 185.069 341.492 185.442 341.558 185.833C341.644 186.569 341.605 187.315 341.441 188.038V188.038Z" fill="black"/>
<path d="M344.727 185.547C343.225 185.089 341.781 184.458 340.426 183.665C340.208 183.514 339.962 183.409 339.701 183.357C339.348 183.352 338.999 183.441 338.69 183.613C335.499 184.984 331.897 185.06 328.65 183.823C328.197 183.667 327.772 183.436 327.394 183.142C327.08 182.82 326.748 182.517 326.398 182.235C325.156 181.433 323.44 182.374 322.051 181.859C321.805 181.749 321.553 181.652 321.297 181.569C320.199 181.294 319.082 182.386 318.003 182.054C317.601 183.143 317.304 184.267 317.116 185.411C316.963 186.726 316.881 188.048 316.871 189.371C316.871 190.165 316.833 190.959 316.871 191.753C317.004 191.775 317.131 191.824 317.244 191.897C317.357 191.97 317.453 192.066 317.527 192.178C317.577 192.31 317.597 192.45 317.587 192.59C317.576 192.729 317.535 192.865 317.467 192.988C316.678 195.009 315.878 197.052 314.682 198.862C315.525 199.363 316.308 199.959 317.014 200.639C318.335 202.031 318.984 203.985 320.41 205.272C322.017 206.721 324.307 207.075 326.447 207.361L331.831 208.079C332.743 208.25 333.675 208.281 334.596 208.173C335.107 208.081 335.604 207.92 336.072 207.695C336.378 207.568 336.657 207.384 336.894 207.154C337.093 206.928 337.257 206.675 337.381 206.401C337.807 205.55 338.196 204.681 338.554 203.8C338.679 203.488 338.868 203.123 339.207 203.096C341.207 201.297 343.093 199.453 345.093 197.654C345.897 196.99 346.617 196.232 347.24 195.396C348.232 193.932 347.33 191.858 347.24 190.09C347.229 189.637 347.172 189.187 347.07 188.746C346.746 187.463 345.983 185.927 344.727 185.547Z" fill="#4477C9"/>
<path opacity="0.1" d="M312.694 178.016C312.392 178.618 311.668 178.908 311.109 179.288L309.196 180.598C309.069 180.713 308.919 180.801 308.756 180.856C308.593 180.912 308.421 180.934 308.249 180.922C308.094 180.864 307.951 180.776 307.83 180.663C307.709 180.55 307.611 180.414 307.544 180.263C307.544 180.176 307.544 180.082 307.544 179.992C307.529 179.687 307.57 179.383 307.665 179.092C307.852 178.667 308.142 178.294 308.51 178.009C309.22 177.338 310.065 176.825 310.989 176.503C311.133 176.447 311.289 176.432 311.441 176.458C311.5 176.473 311.556 176.497 311.607 176.53C311.742 176.676 311.857 176.841 311.947 177.019C312.098 177.327 312.849 177.708 312.694 178.016Z" fill="black"/>
<path d="M317.199 181.983C316.558 181.953 316.033 181.49 315.565 181.05L314.135 179.725C314.04 179.644 313.956 179.55 313.886 179.446C313.809 179.3 313.751 179.144 313.713 178.983C313.41 178.223 312.934 177.543 312.324 176.996C312.218 176.861 312.075 176.76 311.913 176.703C311.76 176.674 311.601 176.69 311.457 176.748C310.533 177.069 309.688 177.582 308.978 178.253C308.61 178.539 308.32 178.912 308.132 179.337C308.038 179.627 307.997 179.932 308.012 180.237C308.021 181.231 308.245 182.212 308.668 183.112C308.732 183.251 308.804 183.39 308.88 183.526C309.383 184.356 309.978 185.127 310.653 185.826L311.551 186.827C312.434 187.813 313.317 188.799 314.275 189.706C314.618 190.071 315.035 190.361 315.497 190.556C315.73 190.651 315.983 190.68 316.231 190.64C316.479 190.6 316.71 190.493 316.901 190.33C317.082 190.122 317.218 189.878 317.301 189.615C317.882 188.11 318.433 186.544 318.467 184.922C318.475 184.273 318.447 183.623 318.384 182.976C318.327 182.292 317.84 182.024 317.199 181.983Z" fill="#4477C9"/>
<path d="M340.064 234.673C340.042 238.459 339.772 242.239 339.256 245.99C339.181 246.596 339.098 247.202 339.056 247.807C338.932 249.565 339.135 251.33 338.969 253.076C338.883 254.021 338.686 254.958 338.52 255.88C337.783 259.996 337.568 264.187 337.879 268.356C338.4 275.293 336.804 282.233 337.528 289.15C337.616 290.495 337.541 291.846 337.306 293.173C337.171 293.997 336.975 294.81 336.721 295.605C336.17 297.489 335.617 299.371 335.061 301.25C334.995 301.536 334.866 301.803 334.683 302.033C334.491 302.199 334.265 302.322 334.021 302.394C333.777 302.466 333.52 302.485 333.268 302.451C331.091 302.383 329.043 301.446 327.066 300.531C326.838 300.442 326.628 300.314 326.443 300.155C326.032 299.729 326.066 299.06 325.885 298.499C325.703 297.938 325.213 297.411 324.934 296.835C324.704 296.291 324.565 295.712 324.523 295.123C324.271 293.196 324.1 291.262 324.009 289.32C323.866 286.587 325.677 284.073 326.273 281.416C327.405 276.192 326.447 270.592 328.458 265.635C329.092 264.07 328.171 262.173 328.08 260.487C328.048 259.399 327.906 258.317 327.658 257.258C327.281 255.843 326.484 254.51 326.428 253.043C326.386 251.981 326.73 250.946 326.907 249.9C327.142 248.36 327.121 246.792 326.843 245.26C326.643 243.995 326.337 242.73 326.032 241.496L325.964 241.635C325.045 243.427 324.254 245.283 323.598 247.186C323.296 248.109 323.032 249.049 322.655 249.945C322.345 250.698 321.964 251.387 321.591 252.094C320.251 254.589 319.085 257.173 318.101 259.828C317.633 261.13 317.222 262.463 316.814 263.769L314.018 272.801C313.264 275.176 312.437 277.472 311.698 279.843C310.653 283.23 309.608 286.587 308.393 289.899C307.261 293.042 305.914 296.297 306.318 299.617C305.277 300.104 304.135 300.335 302.986 300.29C301.041 300.119 299.134 299.657 297.326 298.92C296.606 298.653 295.859 298.352 295.372 297.761C294.534 296.741 294.742 295.247 294.995 293.949C295.09 293.363 295.242 292.789 295.448 292.232C295.734 291.54 296.202 290.927 296.496 290.242C297.089 288.928 297.127 287.441 297.36 286.015C297.594 284.589 298.115 283.083 299.338 282.308C299.545 279.801 300.579 277.329 301.149 274.879C301.579 273.023 301.722 271.115 302.062 269.233C302.401 267.352 302.948 265.47 304.088 263.946C303.998 262.374 304.354 260.809 305.114 259.429C305.298 259.126 305.448 258.805 305.563 258.47C305.633 258.143 305.674 257.81 305.684 257.476C305.809 256.168 306.369 254.94 307.276 253.987C306.899 252.614 307.423 251.18 307.895 249.847C308.489 248.147 308.758 246.351 308.687 244.552C308.629 244.05 308.653 243.541 308.759 243.047C308.864 242.67 309.072 242.35 309.193 241.989C309.3 241.546 309.357 241.093 309.362 240.638C309.51 238.602 310.336 236.682 311.249 234.865C311.792 233.803 311.332 232.362 311.445 231.18C311.641 229.215 311.856 227.183 312.834 225.471C313.015 225.147 313.211 224.838 313.373 224.504C313.57 224.025 313.676 223.515 313.686 222.998C313.72 222.136 313.841 221.421 313.532 220.62C315.55 218.945 318.305 218.474 320.931 218.361C323.557 218.248 326.213 218.486 328.782 217.929C329.537 217.759 330.291 217.526 331.088 217.413C332.895 217.15 334.729 217.56 336.513 217.966C336.389 219.095 336.804 220.179 337.268 221.229C339.08 225.483 340.03 230.051 340.064 234.673V234.673Z" fill="#33313F"/>
<path opacity="0.1" d="M331.178 235.535L326.843 245.26C326.643 243.995 326.337 242.73 326.032 241.496L325.964 241.635V241.432L328.326 236.25L331.178 235.535Z" fill="black"/>
<path opacity="0.1" d="M344.169 215.219C343.919 215.405 343.62 215.517 343.308 215.539C342.831 215.556 342.353 215.491 341.897 215.347L338.502 214.5C338.395 214.474 338.291 214.437 338.192 214.391C338.249 213.8 338.362 213.115 338.683 212.885C339.162 212.566 340.596 212.995 341.139 213.07C342.075 213.198 343.025 213.348 343.939 213.525C344.08 214.079 344.157 214.647 344.169 215.219V215.219Z" fill="black"/>
<path d="M347.04 192.826C347.112 193.138 347.214 193.447 347.274 193.763C347.375 194.538 347.349 195.325 347.195 196.092L346.885 198.245L346.576 200.409L345.38 208.738L345.086 210.8L344.67 213.68C344.651 213.919 344.59 214.153 344.489 214.372C344.366 214.577 344.193 214.747 343.987 214.869C343.781 214.99 343.548 215.059 343.308 215.068C342.831 215.083 342.354 215.019 341.897 214.876L338.502 214.026C338.353 213.999 338.211 213.942 338.087 213.856C337.983 213.755 337.908 213.628 337.869 213.489C337.831 213.349 337.83 213.202 337.868 213.062C337.917 212.776 338.041 212.509 338.083 212.223C338.166 211.666 337.932 211.094 338.015 210.541C338.096 210.188 338.223 209.848 338.392 209.528C339.524 207.033 338.868 204.12 339.252 201.41C339.599 199.278 340.502 197.274 341.871 195.599C342.716 194.543 343.686 193.592 344.761 192.769C345.184 192.442 345.855 191.768 346.387 191.64C347.07 191.497 346.927 192.351 347.04 192.826Z" fill="#4477C9"/>
<path d="M321.342 160.406C321.093 161.197 321.481 162.066 321.304 162.872C321.112 163.76 320.274 164.377 320.036 165.269C319.659 166.628 320.814 167.866 321.659 168.995C324.79 173.187 324.379 178.991 323.308 184.106C322.445 188.209 321.253 192.237 319.742 196.149C319.27 197.365 318.75 198.599 317.822 199.51C319.557 199.013 321.402 198.512 323.142 198.994C325.345 199.604 327.247 201.738 329.48 201.252C330.823 200.955 331.767 199.766 332.974 199.107C335.238 197.891 337.966 198.655 340.49 199.047C341.034 199.175 341.603 199.146 342.131 198.964C342.535 198.748 342.878 198.433 343.127 198.05C344.254 196.608 344.928 194.867 345.067 193.044C345.126 192.136 344.992 191.227 344.673 190.375C344.353 189.523 343.856 188.748 343.214 188.102C342.678 187.598 342.037 187.192 341.626 186.597C341.226 185.903 341.011 185.117 341.003 184.316C340.705 180.176 341.716 175.95 340.675 171.945C340.298 170.519 339.683 169.153 339.517 167.693C339.309 165.875 339.803 163.929 339.079 162.266C338.509 160.945 337.253 160.007 335.898 159.526C334.544 159.044 333.095 158.909 331.657 158.773C329.59 158.6 322.206 157.716 321.342 160.406Z" fill="#33313F"/>
<g opacity="0.1">
<path opacity="0.1" d="M323.308 184.106C322.45 188.192 321.264 192.203 319.761 196.1C320.021 195.584 320.24 195.042 320.448 194.504C321.96 190.592 323.153 186.565 324.013 182.461C325.088 177.342 325.5 171.547 322.368 167.35C321.613 166.349 320.644 165.265 320.678 164.091C320.399 164.446 320.182 164.846 320.036 165.273C319.659 166.631 320.814 167.87 321.659 168.999C324.79 173.187 324.379 178.991 323.308 184.106Z" fill="black"/>
<path opacity="0.1" d="M321.349 162.491C321.652 162.116 321.878 161.685 322.013 161.223C322.072 160.664 322.057 160.1 321.968 159.545C321.678 159.763 321.459 160.063 321.342 160.406C321.119 161.073 321.376 161.795 321.349 162.491Z" fill="black"/>
<path opacity="0.1" d="M343.837 196.394C343.587 196.776 343.244 197.089 342.841 197.304C342.313 197.49 341.743 197.519 341.199 197.387C338.675 197.011 335.917 196.235 333.683 197.451C332.472 198.106 331.533 199.295 330.186 199.596C327.956 200.093 326.054 197.959 323.851 197.338C322.289 196.905 320.644 197.263 319.07 197.715C318.758 198.38 318.336 198.988 317.822 199.514C319.557 199.017 321.402 198.516 323.142 198.998C325.345 199.608 327.247 201.742 329.48 201.256C330.823 200.959 331.767 199.769 332.974 199.111C335.238 197.895 337.966 198.659 340.49 199.051C341.034 199.179 341.603 199.15 342.131 198.968C342.535 198.751 342.878 198.437 343.127 198.053C343.811 197.154 344.339 196.146 344.689 195.073C344.437 195.533 344.152 195.974 343.837 196.394Z" fill="black"/>
</g>
</g>
<defs>
<linearGradient id="paint0_linear" x1="289.995" y1="230.488" x2="347.723" y2="230.488" gradientUnits="userSpaceOnUse">
<stop stop-color="#808080" stop-opacity="0.25"/>
<stop offset="0.54" stop-color="#808080" stop-opacity="0.12"/>
<stop offset="1" stop-color="#808080" stop-opacity="0.1"/>
</linearGradient>
<clipPath id="clip0">
<rect width="440" height="303" fill="white"/>
</clipPath>
</defs>
</svg>
